<?xml version="1.0" standalone="no"?>
<!DOCTYPE svg PUBLIC "-//W3C//DTD SVG 20010904//EN"
 "http://www.w3.org/TR/2001/REC-SVG-20010904/DTD/svg10.dtd">
<svg version="1.0" xmlns="http://www.w3.org/2000/svg"
 width="1920.000000pt" height="1257.000000pt" viewBox="0 0 1920.000000 1257.000000"
 preserveAspectRatio="xMidYMid meet">

<g transform="translate(0.000000,1257.000000) scale(0.100000,-0.100000)"
fill="#000000" stroke="none">
<path d="M4497 12108 c-20 -55 -47 -202 -47 -258 0 -75 54 -345 71 -356 5 -3
9 -12 9 -19 0 -22 64 -151 155 -315 27 -47 237 -332 283 -383 20 -23 59 -66
87 -97 89 -99 377 -380 465 -454 19 -16 67 -57 105 -91 88 -77 184 -153 355
-285 74 -57 164 -127 200 -155 36 -29 103 -80 150 -116 47 -35 90 -67 95 -71
6 -5 53 -38 105 -76 94 -66 121 -85 298 -208 48 -33 132 -92 187 -130 111 -78
282 -195 510 -348 83 -56 155 -105 160 -109 17 -13 409 -291 437 -309 15 -10
67 -24 115 -33 125 -21 229 -61 341 -132 58 -37 250 -200 280 -237 10 -13 50
-59 89 -102 39 -44 92 -110 118 -149 26 -38 60 -86 75 -105 23 -30 82 -122
115 -178 6 -9 26 -42 46 -72 49 -77 94 -157 209 -375 34 -66 66 -124 70 -130
4 -5 22 -37 40 -70 63 -115 77 -141 153 -272 43 -73 77 -136 77 -140 1 -5 29
-44 63 -88 66 -84 131 -131 166 -120 28 9 64 48 88 97 33 66 103 358 103 429
0 24 4 60 10 79 5 19 13 68 16 110 l6 75 -88 86 c-127 123 -231 220 -289 269
-27 24 -52 46 -55 49 -3 4 -32 29 -65 56 -51 42 -89 76 -149 130 -10 9 -158
127 -256 205 -19 15 -62 49 -95 76 -33 26 -114 88 -180 138 -66 49 -122 92
-125 95 -8 10 -251 187 -486 355 -115 82 -272 195 -349 251 -77 56 -175 126
-217 156 -152 106 -585 417 -623 447 -5 4 -40 29 -78 55 -37 25 -73 51 -80 57
-6 6 -102 79 -212 162 -110 83 -236 180 -280 217 -45 36 -99 80 -121 97 -258
205 -582 495 -848 759 -112 111 -346 362 -383 411 -20 27 -40 51 -43 54 -8 7
-210 258 -242 302 -26 35 -112 156 -223 318 -29 41 -87 136 -130 210 -43 74
-86 149 -96 165 -10 17 -26 44 -34 62 -29 56 -40 58 -58 11z"/>
<path d="M4259 12076 c-2 -2 -42 -10 -89 -16 -110 -15 -245 -49 -315 -79 -11
-5 -40 -17 -65 -26 -232 -91 -478 -271 -656 -480 -85 -100 -145 -180 -193
-258 -22 -37 -41 -70 -41 -72 0 -3 -11 -23 -24 -44 -47 -74 -104 -187 -140
-276 -20 -49 -42 -101 -47 -115 -6 -14 -17 -38 -24 -55 -6 -16 -20 -47 -29
-68 -9 -21 -16 -47 -16 -58 0 -11 -5 -29 -10 -40 -6 -10 -15 -38 -20 -61 -5
-24 -16 -68 -26 -98 -24 -81 -50 -202 -69 -315 -9 -55 -21 -122 -27 -150 -5
-27 -14 -108 -19 -180 -5 -71 -12 -173 -16 -225 -9 -113 0 -501 15 -653 17
-164 28 -232 83 -517 12 -62 39 -168 49 -194 4 -11 16 -48 25 -81 10 -33 23
-76 30 -95 7 -19 21 -60 30 -90 18 -53 44 -114 144 -330 23 -50 74 -134 83
-138 4 -2 8 -8 8 -13 0 -9 70 -122 141 -227 16 -23 29 -45 29 -49 0 -4 7 -14
15 -23 27 -30 171 -310 282 -550 17 -36 52 -110 78 -165 25 -55 55 -118 65
-140 67 -144 90 -196 110 -240 42 -95 73 -160 135 -290 34 -71 82 -173 106
-225 47 -102 180 -366 221 -440 37 -67 81 -146 123 -225 41 -75 156 -254 190
-294 112 -133 189 -191 256 -191 37 0 48 5 83 43 32 33 48 64 72 136 l32 93
-69 119 c-38 66 -86 147 -107 182 -21 34 -41 69 -45 77 -4 8 -16 29 -27 45
-11 17 -23 37 -27 45 -7 15 -105 183 -123 210 -6 8 -13 22 -17 30 -4 8 -17 31
-29 51 -22 35 -139 245 -219 394 -61 112 -369 727 -384 765 -13 32 -42 98
-106 235 -36 80 -61 136 -85 195 -45 111 -82 206 -95 240 -7 19 -22 58 -33 85
-44 108 -93 249 -160 460 -75 232 -87 276 -122 420 -12 50 -28 115 -35 145
-34 137 -47 199 -55 255 -7 56 -14 94 -41 263 -42 258 -60 653 -39 877 27 288
27 290 67 480 31 151 83 324 140 470 88 222 236 489 361 650 4 6 30 39 57 75
147 194 461 495 648 623 101 70 156 111 157 120 0 7 -183 10 -191 3z"/>
<path d="M10865 6030 c-27 -4 -84 -12 -125 -18 -41 -6 -91 -16 -110 -22 -19
-5 -52 -10 -72 -10 -21 0 -59 -7 -85 -15 -26 -8 -73 -22 -103 -31 -30 -9 -66
-20 -80 -24 -14 -5 -59 -18 -100 -31 -41 -12 -77 -23 -79 -25 -6 -6 31 -44 42
-44 6 0 30 -9 54 -21 52 -25 127 -45 253 -67 176 -31 578 -16 900 33 221 33
310 46 385 55 44 6 105 14 135 19 56 10 259 30 339 34 25 1 46 7 48 12 4 12
-162 57 -312 86 -55 10 -125 24 -155 30 -168 32 -279 41 -575 44 -170 2 -332
0 -360 -5z"/>
<path d="M12657 5728 c11 -13 32 -43 46 -68 14 -25 36 -52 47 -60 12 -8 73
-53 135 -100 90 -67 273 -191 358 -242 70 -42 200 -118 203 -118 2 0 36 -19
76 -43 70 -41 438 -225 543 -272 28 -12 70 -31 95 -43 25 -11 72 -33 105 -47
94 -43 155 -70 228 -104 37 -17 71 -31 77 -31 5 0 24 -6 42 -14 70 -30 106
-44 178 -70 86 -31 141 -53 187 -72 17 -8 37 -14 45 -14 8 0 18 -4 24 -8 16
-15 155 -63 449 -157 99 -31 218 -70 265 -85 47 -15 114 -35 150 -44 128 -35
176 -47 210 -56 19 -4 55 -14 80 -21 25 -6 61 -15 80 -20 19 -4 71 -17 115
-29 44 -12 103 -25 130 -31 28 -5 84 -16 125 -24 41 -8 104 -20 138 -25 35 -6
83 -14 105 -19 108 -24 161 -32 282 -41 232 -18 386 -38 500 -66 54 -13 196
-37 243 -41 61 -6 73 13 15 22 -21 4 -49 10 -63 15 -45 16 -242 67 -385 99
-77 18 -153 36 -170 41 -16 4 -66 16 -110 25 -44 9 -102 23 -130 30 -66 18
-251 61 -380 90 -38 8 -86 19 -105 24 -34 9 -113 28 -240 57 -36 9 -90 21
-120 29 -30 7 -116 28 -190 45 -120 28 -187 48 -310 95 -161 60 -264 102 -316
126 -34 16 -64 29 -67 29 -22 0 -590 278 -1112 545 -465 238 -473 242 -800
395 -268 126 -338 158 -370 171 -11 4 -72 29 -135 54 -63 26 -133 53 -155 62
-22 8 -48 19 -57 24 -10 5 -32 9 -50 9 l-31 0 20 -22z"/>
<path d="M18008 3743 c12 -2 32 -2 45 0 12 2 2 4 -23 4 -25 0 -35 -2 -22 -4z"/>
<path d="M4580 3217 c-168 -167 -381 -375 -475 -463 -93 -87 -203 -190 -244
-229 -41 -38 -82 -77 -91 -85 -9 -8 -39 -36 -66 -61 -27 -25 -83 -74 -124
-110 -41 -35 -82 -71 -91 -79 -22 -21 -156 -140 -204 -181 -22 -19 -62 -55
-90 -80 -42 -39 -127 -112 -230 -197 -11 -10 -72 -60 -135 -112 -63 -52 -124
-102 -135 -112 -11 -9 -54 -44 -95 -78 -41 -34 -86 -72 -100 -84 -24 -20 -141
-114 -292 -233 -38 -29 -98 -77 -135 -106 -38 -29 -88 -69 -113 -87 -25 -19
-47 -37 -50 -40 -8 -10 -223 -174 -250 -191 -14 -9 -36 -27 -50 -39 -14 -12
-47 -37 -75 -56 -27 -19 -70 -50 -95 -69 -25 -19 -72 -54 -105 -77 l-60 -43
69 -3 68 -3 82 56 c44 31 122 84 171 119 50 34 135 91 190 126 55 35 140 88
188 119 49 31 99 63 112 71 13 8 73 46 132 83 59 38 140 88 178 113 225 142
273 174 650 429 150 102 303 213 333 242 7 7 16 13 20 13 4 0 21 13 38 28 51
44 77 65 124 102 24 19 52 42 61 50 8 8 29 26 45 39 187 155 468 444 629 646
21 28 42 52 46 55 18 13 193 272 274 405 92 150 215 386 215 411 0 8 -3 14 -7
14 -5 0 -145 -136 -313 -303z"/>
<path d="M17765 3147 c-227 -135 -402 -249 -587 -383 -275 -199 -331 -233
-493 -298 -49 -20 -98 -41 -107 -46 -10 -6 -24 -10 -33 -10 -8 0 -29 -6 -47
-14 -101 -43 -185 -67 -293 -85 -38 -7 -99 -18 -135 -26 -36 -7 -101 -20 -145
-29 -44 -8 -106 -20 -137 -26 -32 -6 -92 -15 -135 -20 -43 -6 -127 -16 -188
-25 -681 -92 -1597 -101 -2480 -24 -60 5 -162 14 -225 19 -63 5 -149 14 -190
19 -41 6 -138 17 -215 26 -215 25 -470 58 -650 85 -33 5 -109 16 -170 25 -109
16 -216 31 -402 60 -54 8 -114 17 -133 19 -44 6 -271 41 -515 81 -102 17 -134
22 -310 50 -55 8 -143 22 -195 31 -97 16 -206 33 -385 60 -55 8 -132 19 -171
24 -38 4 -88 13 -110 19 -21 6 -54 11 -73 11 -19 0 -73 7 -120 15 -115 19
-259 42 -351 54 -221 30 -539 70 -585 75 -116 11 -280 28 -355 36 -148 17
-225 21 -237 12 -20 -13 -36 -121 -29 -200 18 -216 233 -384 606 -473 19 -4
62 -15 95 -24 33 -9 98 -23 145 -30 47 -8 128 -21 180 -30 104 -17 113 -18
340 -39 329 -32 429 -38 1250 -71 606 -25 792 -35 893 -45 54 -5 132 -10 175
-10 42 0 122 -7 177 -15 55 -8 123 -15 150 -15 28 0 86 -6 130 -14 193 -35
261 -46 279 -46 11 0 33 -4 50 -10 17 -5 58 -17 91 -25 181 -49 213 -60 340
-120 50 -24 106 -48 125 -54 112 -34 144 -42 235 -61 268 -55 850 -74 1165
-37 80 9 189 21 242 26 53 6 116 15 140 20 24 5 82 17 131 25 48 9 126 23 175
32 109 20 424 94 587 139 48 13 187 54 270 80 22 6 67 20 100 30 82 24 146 45
170 56 11 5 54 20 95 33 132 43 333 118 445 165 11 5 56 23 100 41 44 17 94
38 110 45 98 43 126 55 178 79 31 14 83 38 115 52 31 14 107 51 167 81 509
257 845 483 954 645 47 69 43 148 -7 148 -4 0 -92 -51 -197 -113z"/>
<path d="M7785 1764 c-112 -12 -308 -77 -550 -184 -11 -5 -42 -18 -70 -30 -27
-11 -59 -26 -69 -31 -11 -6 -51 -28 -90 -49 -206 -108 -247 -130 -306 -163
-89 -49 -456 -272 -564 -344 -49 -32 -99 -65 -112 -73 -100 -64 -358 -246
-508 -356 l-180 -134 177 0 177 0 92 81 c51 45 116 102 143 128 81 75 174 153
262 220 84 63 281 201 288 201 2 0 34 20 72 45 37 25 73 45 80 45 6 0 13 4 15
8 7 18 312 174 473 242 96 41 154 66 223 96 17 8 47 20 65 28 17 8 43 19 57
25 22 9 104 38 463 159 59 20 107 39 107 43 0 30 -137 54 -245 43z"/>
</g>
</svg>
